<svg xmlns="http://www.w3.org/2000/svg" width="128" height="128" viewBox="0 0 128 128">
  <rect width="128" height="128" rx="16" fill="#2b2233"/>
  <g fill="none" stroke="#d9a441" stroke-width="8" stroke-linejoin="round">
    <path d="M64 26 l7 0 4 12 11 5 11-6 6 6 -6 11 5 11 12 4 0 7 0 7 -12 4 -5 11 6 11 -6 6 -11-6 -11 5 -4 12 -7 0 -7 0 -4-12 -11-5 -11 6 -6-6 6-11 -5-11 -12-4 0-7 0-7 12-4 5-11 -6-11 6-6 11 6 11-5 4-12 7 0z"/>
  </g>
  <circle cx="64" cy="64" r="16" fill="none" stroke="#d9a441" stroke-width="8"/>
</svg>
