<svg xmlns="http://www.w3.org/2000/svg" viewBox="0 0 64 64"><!-- Gizmo emblem · lamp (M8 Beacon, rekindled/living frame). Warm vigil flame; an ACTIVE beacon adds a teal core-spark (G6); a DORMANT beacon snuffs/cools it. derived from canon package; do not edit as source. -->
<g fill="none" stroke-linecap="round" stroke-linejoin="round">
  <circle cx="32" cy="15" r="11.5" stroke="#c9906b" stroke-width="1.1" stroke-dasharray="0.1 4.4"/>
  <g transform="translate(1.1 0.9)" opacity="0.9"><path d="M32 8.5 C35.4 12.5 36 16 32 19.6 C28 16 28.6 12.5 32 8.5 Z" fill="#e0c17a"/><path d="M21.5 47 h21 l-2.4 5.2 h-16.2 Z" fill="#c9906b" opacity="0.75"/></g>
  <path d="M32 8.5 C35.4 12.5 36 16 32 19.6 C28 16 28.6 12.5 32 8.5 Z" stroke="#352c2b" stroke-width="1.5"/>
  <path d="M32 19.6 V23" stroke="#352c2b" stroke-width="1.1"/>
  <path d="M29 23.2 h6 V42 h-6 Z" stroke="#352c2b" stroke-width="1.8"/>
  <path d="M29 26.5 q-1.8 2.6 -0.2 5.4" stroke="#352c2b" stroke-width="0.9"/>
  <path d="M33.4 26 v3 M33.4 31 v4.4 M33.4 37.4 v3" stroke="#352c2b" stroke-width="0.65"/>
  <path d="M27 42 h10" stroke="#352c2b" stroke-width="1.4"/>
  <path d="M27.6 42 l-5 5 h19.8 l-5 -5" stroke="#352c2b" stroke-width="1.1"/>
  <path d="M21.5 47 h21 l-2.4 5.2 h-16.2 Z" stroke="#352c2b" stroke-width="1.7"/>
  <circle cx="46.5" cy="49.5" r="3.2" stroke="#352c2b" stroke-width="1.4"/>
  <path d="M25 50.2 h14" stroke="#352c2b" stroke-width="0.65"/>
</g></svg>
