<svg xmlns="http://www.w3.org/2000/svg" viewBox="0 0 64 64"><!-- Gizmo emblem · seal-cracked (M9 decay; damaged-but-HOLDING, endurance under stress). NOT the de-face operator (that is presence/absence of a FACE, M4). derived from canon package; do not edit as source. -->
<g fill="none" stroke-linecap="round" stroke-linejoin="round">
  <path d="M27 42 L20 58 L27.5 53.5 L30 60 L35 44" stroke="#352c2b" stroke-width="1.4"/>
  <path d="M37 42 L44 58 L36.5 53.5" stroke="#352c2b" stroke-width="1.4"/>
  <g transform="translate(1.2 1)"><path d="M32 9 c7 0 14.5 4.5 15 14.5 c0.5 9.5 -7 16 -15 16 c-8 0 -15.5 -6.5 -15 -16 C17.5 13.5 25 9 32 9 Z" fill="#b14455" opacity="0.92"/></g>
  <path d="M32 9 c7 0 14.5 4.5 15 14.5 c0.5 9.5 -7 16 -15 16 c-8 0 -15.5 -6.5 -15 -16 C17.5 13.5 25 9 32 9 Z" stroke="#352c2b" stroke-width="1.8"/>
  <circle cx="32" cy="24.5" r="10.5" stroke="#e0c17a" stroke-width="1.1"/>
  <g stroke="#e0c17a" stroke-width="1.1"><path d="M32 18.5 V30.5 M26.5 24.5 h11"/></g>
  <g stroke="#352c2b" stroke-width="0.85"><path d="M30 22 L24 14.5 L22.5 16.5 M24 14.5 L25.8 12"/><path d="M34.5 26 L41 32.5 L43.5 31 M41 32.5 L40 36"/><path d="M29.5 27 L23 31.5 L21 29.8"/><path d="M35 21.5 L40.5 16 L39.3 13.8"/></g>
</g></svg>
