<svg xmlns="http://www.w3.org/2000/svg" viewBox="0 0 64 64"><!-- Gizmo emblem · thorn (M9 decay / encroaching margin as exposure rises). derived from canon package; do not edit as source. -->
<g fill="none" stroke-linecap="round" stroke-linejoin="round">
  <g transform="translate(1 0.8)" opacity="0.7" stroke="#b14455" fill="#b14455"><path d="M10 54 C22 48 28 38 34 30 C40 22 46 16 54 10" stroke-width="2.4" fill="none"/><path d="M19 48 Q14 43 13 38 Q18 42 23 45 Z" stroke="none"/><path d="M38 26 Q33 21 33 16.5 Q38 21 41 23 Z" stroke="none"/></g>
  <path d="M10 54 C22 48 28 38 34 30 C40 22 46 16 54 10" stroke="#352c2b" stroke-width="2.2"/>
  <path d="M19 48 Q14 43 13 38 Q18 42 23 45 Z" fill="#352c2b" stroke="#352c2b" stroke-width="0.6"/>
  <path d="M29 36 Q34 40.5 37.5 41 Q33 36.5 32 33 Z" fill="#352c2b" stroke="#352c2b" stroke-width="0.6"/>
  <path d="M38 26 Q33 21 33 16.5 Q38 21 41 23 Z" fill="#352c2b" stroke="#352c2b" stroke-width="0.6"/>
  <path d="M46 18 Q51 22.5 54 22 Q50 18 49 14.5 Z" fill="#352c2b" stroke="#352c2b" stroke-width="0.6"/>
  <path d="M12.5 52.5 Q8.5 49 7.5 46.5 Q12 50 15.5 50.5 Z" fill="#352c2b" stroke="#352c2b" stroke-width="0.6"/>
  <path d="M43 14 c2.6 -3.4 5.6 -4.6 9.4 -4 c-1.6 3.6 -4.8 5 -9.4 4 Z" stroke="#352c2b" stroke-width="1"/>
  <path d="M45 13 l6 -2.4" stroke="#352c2b" stroke-width="0.5"/>
  <path d="M22.5 44.5 l2.6 -2.6 M27 39.5 l2.4 -2.2 M42 21 l2.4 -2.2" stroke="#352c2b" stroke-width="0.55"/>
</g></svg>
