<svg xmlns="http://www.w3.org/2000/svg" viewBox="0 0 64 64"><!-- Gizmo emblem · thread (M4 / B-face REPAIR: needle + gold thread = mend, scar honored). NOT M5 wayfinding (that is the unbroken path/braid/light-stream stroke). derived from canon package; do not edit as source. -->
<g fill="none" stroke-linecap="round" stroke-linejoin="round">
  <g transform="translate(0.9 0.7)" opacity="0.95"><path d="M44.5 16 C52.5 24 44 31 35 36 C26 41 20.5 47 24.5 52.5 C26.5 55.3 30.5 56.6 35 56.8" stroke="#c9906b" stroke-width="1.7"/></g>
  <path d="M44.5 16 C52.5 24 44 31 35 36 C26 41 20.5 47 24.5 52.5" stroke="#352c2b" stroke-width="0.6" stroke-dasharray="4.5 2.5"/>
  <path d="M15.5 52.5 L44 11" stroke="#352c2b" stroke-width="2.1"/>
  <path d="M15.5 52.5 L19.5 49.8" stroke="#352c2b" stroke-width="0.8"/>
  <ellipse cx="42.6" cy="13.2" rx="1.5" ry="3" transform="rotate(34 42.6 13.2)" stroke="#352c2b" stroke-width="1"/>
  <path d="M10 57.5 h44" stroke="#352c2b" stroke-width="1.2"/>
  <path d="M13.5 57.5 h6 M25.5 57.5 h6 M37.5 57.5 h6 M49 57.5 h4" stroke="#c9906b" stroke-width="2"/>
  <path d="M12 60 h40" stroke="#352c2b" stroke-width="0.5"/>
</g></svg>
