<svg xmlns="http://www.w3.org/2000/svg" viewBox="0 0 200 200" width="200" height="200" role="img" aria-label="Bumper enemy">
  <defs>
    <linearGradient id="bm-b" x1="0" y1="0" x2="0" y2="1">
      <stop offset="0" stop-color="#EC8298"></stop><stop offset="1" stop-color="#B6455F"></stop>
    </linearGradient>
  </defs>
  <rect x="34" y="44" width="132" height="132" rx="32" fill="url(#bm-b)" stroke="#2A1622" stroke-width="6"></rect>
  
  <path d="M52 64 Q70 54 100 54 Q130 54 148 64 Q120 70 100 70 Q80 70 52 64 Z" fill="#FFC3CF" opacity="0.6"></path>
  
  <g fill="#FFD24A" stroke="#9A6B14" stroke-width="2">
    <circle cx="56" cy="66" r="7"></circle><circle cx="144" cy="66" r="7"></circle>
    <circle cx="56" cy="154" r="7"></circle><circle cx="144" cy="154" r="7"></circle>
  </g>
  
  <g>
    <ellipse cx="80" cy="108" rx="15" ry="16" fill="#FFF7E8"></ellipse>
    <ellipse cx="120" cy="108" rx="15" ry="16" fill="#FFF7E8"></ellipse>
    <circle cx="83" cy="111" r="7" fill="#2A1622"></circle>
    <circle cx="117" cy="111" r="7" fill="#2A1622"></circle>
    <path d="M64 92 L94 98" stroke="#2A1622" stroke-width="6" stroke-linecap="round"></path>
    <path d="M136 92 L106 98" stroke="#2A1622" stroke-width="6" stroke-linecap="round"></path>
  </g>
  
  <rect x="84" y="140" width="32" height="7" rx="3.5" fill="#2A1622"></rect>
</svg>