<svg xmlns="http://www.w3.org/2000/svg" viewBox="0 0 600 96" width="600" height="96" role="img" aria-label="Ability and charge icons">
  <defs>
    <linearGradient id="ic-chip" x1="0" y1="0" x2="0" y2="1">
      <stop offset="0" stop-color="#1E1A33"></stop><stop offset="1" stop-color="#141026"></stop>
    </linearGradient>
    <filter id="ic-g" x="-60%" y="-60%" width="220%" height="220%">
      <feGaussianBlur stdDeviation="3.2" result="b"></feGaussianBlur><feMerge><feMergeNode in="b"></feMergeNode><feMergeNode in="SourceGraphic"></feMergeNode></feMerge>
    </filter>
  </defs>

  
  <g transform="translate(0,0)">
    <rect x="8" y="8" width="80" height="80" rx="22" fill="url(#ic-chip)" stroke="#FFF7E8" stroke-width="3"></rect>
    <g filter="url(#ic-g)" stroke="#FFF7E8" stroke-width="9" stroke-linecap="round" stroke-linejoin="round" fill="none">
      <path d="M34 30 L52 48 L34 66"></path><path d="M50 30 L68 48 L50 66"></path>
    </g>
    <line x1="22" y1="48" x2="30" y2="48" stroke="#FFF7E8" stroke-width="6" stroke-linecap="round" opacity="0.6"></line>
  </g>

  
  <g transform="translate(100,0)">
    <rect x="8" y="8" width="80" height="80" rx="22" fill="url(#ic-chip)" stroke="#5BE6A4" stroke-width="3"></rect>
    <g filter="url(#ic-g)" stroke="#5BE6A4" stroke-width="9" stroke-linecap="round" fill="none">
      <path d="M22 42 Q37 22 48 42 T74 42"></path>
      <path d="M22 58 Q37 38 48 58 T74 58" opacity="0.55"></path>
    </g>
  </g>

  
  <g transform="translate(200,0)">
    <rect x="8" y="8" width="80" height="80" rx="22" fill="url(#ic-chip)" stroke="#54D8FF" stroke-width="3"></rect>
    <path d="M22 50 L38 50 L46 28 L56 70 L62 46 L74 46" filter="url(#ic-g)" fill="none" stroke="#54D8FF" stroke-width="8" stroke-linecap="round" stroke-linejoin="round"></path>
  </g>

  
  <g transform="translate(300,0)">
    <rect x="8" y="8" width="80" height="80" rx="22" fill="url(#ic-chip)" stroke="#A98BFF" stroke-width="3"></rect>
    <g filter="url(#ic-g)" fill="none" stroke="#A98BFF" stroke-linecap="round">
      <circle cx="48" cy="48" r="6" fill="#A98BFF" stroke="none"></circle>
      <path d="M30 36 A20 20 0 0 1 30 60" stroke-width="6"></path>
      <path d="M66 36 A20 20 0 0 0 66 60" stroke-width="6"></path>
      <path d="M22 28 A34 34 0 0 1 22 68" stroke-width="5" opacity="0.5"></path>
      <path d="M74 28 A34 34 0 0 0 74 68" stroke-width="5" opacity="0.5"></path>
    </g>
  </g>

  
  <g transform="translate(400,0)">
    <rect x="8" y="8" width="80" height="80" rx="22" fill="url(#ic-chip)" stroke="#FFD24A" stroke-width="3"></rect>
    <path d="M54 22 L32 52 L46 52 L42 74 L66 42 L50 42 Z" filter="url(#ic-g)" fill="#FFD24A" stroke="#FFF3C4" stroke-width="2" stroke-linejoin="round"></path>
  </g>

  
  <g transform="translate(500,0)">
    <rect x="8" y="8" width="80" height="80" rx="22" fill="url(#ic-chip)" stroke="#FF7A8E" stroke-width="3"></rect>
    <g filter="url(#ic-g)">
      <circle cx="48" cy="48" r="22" fill="none" stroke="#FF7A8E" stroke-width="6"></circle>
      <circle cx="48" cy="48" r="11" fill="none" stroke="#FF7A8E" stroke-width="5" opacity="0.7"></circle>
      <path d="M48 40 L51 47 L58 47 L52 51 L54 58 L48 54 L42 58 L44 51 L38 47 L45 47 Z" fill="#FFD24A"></path>
    </g>
  </g>
</svg>